<?xml version="1.0" encoding="utf-8"?>
<!-- Generator: Adobe Illustrator 23.0.3, SVG Export Plug-In . SVG Version: 6.00 Build 0)  -->
<svg version="1.1" id="Layer_1" xmlns="http://www.w3.org/2000/svg" xmlns:xlink="http://www.w3.org/1999/xlink" x="0px" y="0px"
	 viewBox="0 0 50 50" style="enable-background:new 0 0 50 50;" xml:space="preserve">
<style type="text/css">
	.st0{fill:#2980B9;}
	.st1{fill:#037CC6;}
	.st2{fill:#9B59B6;}
	.st3{fill:#27AE60;}
	.st4{fill:#E74C3C;}
	.st5{fill:#34495E;}
	.st6{fill:#D35400;}
	.st7{fill:#E22D2D;}
	.st8{fill:#1ABC9C;}
	.st9{fill:#F39C12;}
	.st10{fill:#E67E22;}
	.st11{fill:url(#SVGID_1_);}
	.st12{fill:url(#SVGID_2_);}
	.st13{fill:url(#SVGID_3_);}
	.st14{fill:url(#SVGID_4_);}
	.st15{fill:url(#SVGID_5_);}
	.st16{fill:url(#SVGID_6_);}
	.st17{fill:url(#SVGID_7_);}
	.st18{fill:url(#SVGID_8_);}
	.st19{fill:url(#SVGID_9_);}
	.st20{fill:url(#SVGID_10_);}
	.st21{fill:url(#SVGID_11_);}
	.st22{fill:url(#SVGID_12_);}
	.st23{fill:url(#SVGID_13_);}
	.st24{fill:url(#SVGID_14_);}
	.st25{fill:url(#SVGID_15_);}
	.st26{fill:url(#SVGID_16_);}
	.st27{fill:url(#SVGID_17_);}
	.st28{fill:url(#SVGID_18_);}
	.st29{fill:url(#SVGID_19_);}
	.st30{fill:url(#SVGID_20_);}
	.st31{fill:url(#SVGID_21_);}
	.st32{fill:url(#SVGID_22_);}
	.st33{fill:url(#SVGID_23_);}
	.st34{fill:url(#SVGID_24_);}
	.st35{fill:url(#SVGID_25_);}
	.st36{fill:url(#SVGID_26_);}
	.st37{fill:url(#SVGID_27_);}
	.st38{fill:url(#SVGID_28_);}
	.st39{fill:url(#SVGID_29_);}
	.st40{fill:url(#SVGID_30_);}
	.st41{fill:url(#SVGID_31_);}
	.st42{fill:url(#SVGID_32_);}
	.st43{fill:#0C0C0C;}
	.st44{fill:none;stroke:#0C0C0C;stroke-width:2;stroke-linecap:round;stroke-linejoin:round;stroke-miterlimit:10;}
	.st45{fill:#FFFFFF;stroke:#0C0C0C;stroke-width:2;stroke-linecap:round;stroke-linejoin:round;stroke-miterlimit:10;}
	.st46{fill:#FB0101;}
	.st47{fill:url(#SVGID_33_);}
	.st48{fill:url(#SVGID_34_);}
	.st49{fill:#403D3D;}
	.st50{fill:#926DDE;}
	.st51{fill:#33CABB;}
</style>
<g>
	<g>
		<path class="st43" d="M36.8,40.9H13.2c-1.8,0-3.3-0.9-4.2-2.4c-0.9-1.5-0.9-3.3,0-4.9c0-0.1,0.1-0.2,0.2-0.2l4.1-3.9
			c0-1-0.1-3.5-0.1-6.8c0-5.7,3.2-10.3,6.2-11.1c0.4-2.1,2-5.2,5.6-5.2c0,0,0,0,0,0c3.6,0,5.1,3.1,5.6,5.2c3.1,0.7,6.2,4.8,6.2,11.1
			c0,3.3-0.1,5.8-0.1,6.8l4.1,3.9c0.1,0.1,0.1,0.2,0.2,0.2c0.9,1.5,0.8,3.4,0,4.9C40.1,40,38.5,40.9,36.8,40.9z M10.6,34.7
			c-0.4,0.9-0.4,1.9,0.1,2.8c0.5,0.9,1.5,1.4,2.5,1.4h23.6c1,0,2-0.5,2.5-1.4c0.5-0.9,0.5-1.9,0.1-2.8L35,30.6
			c-0.2-0.2-0.3-0.5-0.3-0.8c0,0,0.1-3,0.1-7.2c0-5.9-3-9.2-5.1-9.2c-0.5,0-0.9-0.4-1-0.9l0,0c0-0.2-0.5-4.2-3.7-4.2c0,0,0,0,0,0
			c-3.3,0-3.8,4-3.8,4.2c0,0.5-0.5,0.9-1,0.9c-1.5,0-5.1,3.5-5.1,9.2c0,4.2,0.1,7.1,0.1,7.2c0,0.3-0.1,0.6-0.3,0.8L10.6,34.7z"/>
		<path class="st43" d="M25.3,47c-3.6,0-6.4-3-6.5-3.1c-0.4-0.4-0.3-1,0.1-1.4c0.4-0.4,1-0.3,1.4,0.1c0,0,2.3,2.4,5,2.4
			c0,0,0.1,0,0.1,0c1.5,0,3-0.8,4.3-2.4c0.4-0.4,1-0.5,1.4-0.1c0.4,0.4,0.5,1,0.1,1.4c-1.7,2-3.7,3.1-5.8,3.1
			C25.3,47,25.3,47,25.3,47z"/>
	</g>
</g>
</svg>
