<?xml version="1.0" encoding="UTF-8" standalone="no"?> <svg width="101" height="101" viewBox="0 0 101 101" fill="white" xmlns="http://www.w3.org/2000/svg">
<path d="M92.016 18.0259H55.518C52.661 18.0259 50.337 20.3499 50.337 23.2069V27.5609H9.46003C5.79103 27.5609 2.80603 30.5459 2.80603 34.2159V64.9389C2.80603 68.6069 5.79103 71.5909 9.46003 71.5909H15.851V84.4749C15.851 85.0689 16.201 85.6059 16.744 85.8469C16.939 85.9329 17.145 85.9749 17.35 85.9749C17.716 85.9749 18.078 85.8409 18.359 85.5849L33.762 71.5909H60.566C64.234 71.5909 67.219 68.6069 67.219 64.9389V50.3289H74.492L85.369 60.2099C85.651 60.4659 86.012 60.5999 86.378 60.5999C86.583 60.5999 86.79 60.5579 86.985 60.4719C87.528 60.2319 87.878 59.6939 87.878 59.0999V50.3289H92.015C94.87 50.3289 97.193 48.0039 97.193 45.1469V23.2069C97.194 20.3499 94.872 18.0259 92.016 18.0259ZM64.22 64.9379C64.22 66.9519 62.581 68.5899 60.567 68.5899H33.183C32.81 68.5899 32.451 68.7289 32.174 68.9799L18.85 81.0849V70.0899C18.85 69.2609 18.179 68.5899 17.35 68.5899H9.45903C7.44403 68.5899 5.80503 66.9519 5.80503 64.9379V34.2149C5.80503 32.1999 7.44403 30.5599 9.45903 30.5599H51.822C51.827 30.5599 51.832 30.5609 51.837 30.5609C51.842 30.5609 51.847 30.5599 51.852 30.5599H60.567C62.582 30.5599 64.22 32.1999 64.22 34.2149V64.9379ZM94.194 45.1469C94.194 46.3499 93.217 47.3289 92.016 47.3289H86.379C85.551 47.3289 84.879 47.9999 84.879 48.8289V55.7109L76.081 47.7189C75.805 47.4689 75.445 47.3289 75.072 47.3289H67.219V34.2159C67.219 30.5469 64.234 27.5609 60.566 27.5609H53.337V23.2069C53.337 22.0039 54.316 21.0259 55.518 21.0259H92.016C93.217 21.0259 94.194 22.0039 94.194 23.2069V45.1469Z" fill="white" stroke="white" stroke-width="2.2"/>
</svg>
